<?xml version="1.0" encoding="UTF-8" standalone="no"?><!DOCTYPE svg PUBLIC "-//W3C//DTD SVG 1.1//EN" "http://www.w3.org/Graphics/SVG/1.1/DTD/svg11.dtd"><svg width="100%" height="100%" viewBox="0 0 2250 2813" version="1.1" xmlns="http://www.w3.org/2000/svg" xmlns:xlink="http://www.w3.org/1999/xlink" xml:space="preserve" xmlns:serif="http://www.serif.com/" style="fill-rule:evenodd;clip-rule:evenodd;stroke-linecap:round;stroke-linejoin:round;stroke-miterlimit:10;"><path d="M1407.14,1457.95c31.229,0 46.731,80.309 -71.151,80.309c-117.882,-0 -171.112,-121.141 -313.706,-114.332c-142.594,6.808 -204.159,163.069 -204.159,243.378" style="fill:none;fill-rule:nonzero;stroke:#c89948;stroke-width:2.08px;"/><path d="M1409.28,1457.95c29.085,12.622 35.087,91.198 -82.795,91.198c-117.882,0 -171.113,-121.14 -313.724,-114.332c-142.594,6.808 -211.876,172.588 -190.988,242.007" style="fill:none;fill-rule:nonzero;stroke:#c89948;stroke-width:2.08px;"/><path d="M1409.28,1457.95c29.445,1.321 25.569,103.734 -92.313,103.734c-117.865,0 -171.113,-121.14 -313.706,-114.332c-142.594,6.791 -221.771,175.023 -168.163,258.058" style="fill:none;fill-rule:nonzero;stroke:#c89948;stroke-width:2.08px;"/><path d="M1426.46,1487.38c11.902,19.31 -1.114,85.196 -118.996,85.196c-117.883,-0 -171.113,-121.14 -313.707,-114.332c-142.594,6.791 -192.875,164.133 -164.287,248.523" style="fill:none;fill-rule:nonzero;stroke:#c89948;stroke-width:2.08px;"/><path d="M1407.14,1457.95c48.532,18.761 12.811,117.831 -105.037,119.992c-117.831,2.143 -175.383,-117.985 -317.685,-108.571c-142.302,9.415 -183.529,165.265 -154.941,236.039" style="fill:none;fill-rule:nonzero;stroke:#c89948;stroke-width:2.08px;"/><path d="M1407.14,1457.95c47.932,20.716 8.541,126.92 -109.307,129.081c-117.831,2.16 -175.383,-117.968 -317.685,-108.554c-142.303,9.398 -191.726,168.078 -152.815,226.933" style="fill:none;fill-rule:nonzero;stroke:#c89948;stroke-width:2.08px;"/><path d="M1399.93,1511.42c32.737,-1.664 53.042,77.719 -70.585,83.978c-123.627,6.242 -185.587,-111.914 -334.8,-97.56c-86.054,8.283 -141.342,64.789 -171.936,126.508" style="fill:none;fill-rule:nonzero;stroke:#c89948;stroke-width:2.08px;"/><path d="M1402.16,1511.3c31.143,11.061 41.398,89.226 -82.229,95.468c-123.644,6.259 -185.587,-111.897 -334.8,-97.543c-77.016,7.408 -131.395,56.06 -162.521,110.799" style="fill:none;fill-rule:nonzero;stroke:#c89948;stroke-width:2.08px;"/><path d="M1402.16,1511.3c30.937,-0.24 32.069,102.242 -91.575,108.484c-123.627,6.26 -185.587,-111.914 -334.8,-97.543c-66.247,6.362 -117.796,43.867 -149.316,90.615" style="fill:none;fill-rule:nonzero;stroke:#c89948;stroke-width:2.08px;"/><path d="M1421.68,1539.79c13.445,18.641 3.121,85.128 -120.506,91.387c-123.644,6.242 -185.587,-111.914 -334.8,-97.561c-66.812,6.431 -112.686,42.015 -139.901,86.791" style="fill:none;fill-rule:nonzero;stroke:#c89948;stroke-width:2.08px;"/><path d="M1399.93,1511.42c51.841,16.154 19.361,116.99 -104.112,125.393c-123.49,8.403 -189.908,-108.519 -338.675,-91.576c-62.44,7.1 -104.9,39.032 -130.675,78.8" style="fill:none;fill-rule:nonzero;stroke:#c89948;stroke-width:2.08px;"/><path d="M1399.93,1511.42c51.292,18.126 15.348,126.302 -108.142,134.705c-123.472,8.403 -189.89,-108.519 -338.675,-91.576c-66.727,7.597 -111.091,45.274 -136.335,89.141" style="fill:none;fill-rule:nonzero;stroke:#c89948;stroke-width:2.08px;"/><path d="M1417.7,1349.33c-3.207,-27.335 -29.239,-124.947 -137.209,-124.947c-107.97,-0 -156.724,173.753 -287.348,163.996c-130.607,-9.758 -226.213,-277.248 -101.248,-341.677" style="fill:none;fill-rule:nonzero;stroke:#c89948;stroke-width:2.08px;"/><path d="M1416.33,1341.53c0,-29.291 -36.579,-132.768 -144.549,-132.768c-107.97,0 -156.724,173.771 -287.331,163.996c-130.607,-9.758 -207.743,-267.473 -92.553,-326.054" style="fill:none;fill-rule:nonzero;stroke:#c89948;stroke-width:2.08px;"/><path d="M1416.33,1323.95c-24.386,-33.183 -45.29,-133.162 -153.26,-133.162c-107.97,0 -156.725,173.771 -287.332,164.013c-130.606,-9.775 -191.228,-255.383 -83.841,-308.099" style="fill:none;fill-rule:nonzero;stroke:#c89948;stroke-width:2.08px;"/><path d="M1404.13,1304.43c-24.386,-27.335 -41.792,-129.269 -149.762,-129.269c-107.97,0 -156.742,173.771 -287.348,164.013c-130.607,-9.758 -167.957,-231.991 -75.13,-292.476" style="fill:none;fill-rule:nonzero;stroke:#c89948;stroke-width:2.08px;"/><path d="M1404.13,1300.52c-24.386,-25.38 -46.748,-129.955 -154.684,-133.041c-107.935,-3.104 -160.634,169.209 -290.984,155.712c-130.332,-13.496 -159.399,-237.445 -66.572,-276.493" style="fill:none;fill-rule:nonzero;stroke:#c89948;stroke-width:2.08px;"/><path d="M1397.55,1287.68c-23.751,-28.022 -44.073,-130.161 -152.008,-133.248c-107.936,-3.104 -160.635,169.209 -290.985,155.713c-130.332,-13.496 -150.533,-222.045 -62.662,-263.443" style="fill:none;fill-rule:nonzero;stroke:#c89948;stroke-width:2.08px;"/><path d="M1409.8,1575.44c-4.974,-19.447 -39.649,-87.271 -141.908,-77.171c-102.26,10.118 -136.026,140.279 -260.408,145.458c-124.399,5.179 -234.066,-179.207 -120.334,-237.479" style="fill:none;fill-rule:nonzero;stroke:#c89948;stroke-width:2.08px;"/><path d="M1404.91,1570.23c-2.092,-21.162 -44.124,-92.536 -146.384,-82.418c-102.259,10.1 -136.025,140.261 -260.407,145.44c-124.399,5.179 -215.872,-173.874 -110.971,-227.001" style="fill:none;fill-rule:nonzero;stroke:#c89948;stroke-width:2.08px;"/><path d="M1403.65,1557.52c-25.466,-21.693 -52.407,-92.004 -154.667,-81.886c-102.259,10.1 -136.008,140.278 -260.407,145.457c-124.399,5.162 -199.374,-166.688 -101.436,-214.842" style="fill:none;fill-rule:nonzero;stroke:#c89948;stroke-width:2.08px;"/><path d="M1390.71,1544.56c-25.038,-17.475 -48.823,-89.518 -151.083,-79.4c-102.259,10.118 -136.009,140.278 -260.407,145.457c-124.399,5.179 -175.657,-151.957 -92.073,-204.364" style="fill:none;fill-rule:nonzero;stroke:#c89948;stroke-width:2.08px;"/><path d="M1390.43,1541.73c-24.917,-16.052 -53.556,-89.552 -156.004,-81.664c-102.448,7.872 -140.039,137.347 -264.455,139.799c-124.416,2.452 -167.94,-156.69 -82.829,-193.612" style="fill:none;fill-rule:nonzero;stroke:#c89948;stroke-width:2.08px;"/><path d="M1383.28,1533.07c-24.506,-18.024 -51.052,-89.947 -153.5,-82.075c-102.431,7.871 -140.039,137.363 -264.455,139.798c-124.399,2.452 -158.422,-146.384 -78.182,-184.54" style="fill:none;fill-rule:nonzero;stroke:#c89948;stroke-width:2.08px;"/><path d="M816.148,1661.73c0.72,20.064 20.15,93.719 122.204,105.637c102.07,11.919 162.795,-108.055 285.427,-86.602c122.65,21.453 190.491,224.978 66.95,257.663" style="fill:none;fill-rule:nonzero;stroke:#c89948;stroke-width:2.08px;"/><path d="M819.818,1667.87c-2.47,21.127 23.391,99.807 125.445,111.726c102.07,11.918 162.795,-108.056 285.445,-86.603c122.632,21.454 173.839,215.889 60.021,245.436" style="fill:none;fill-rule:nonzero;stroke:#c89948;stroke-width:2.08px;"/><path d="M818.343,1680.55c20.253,26.632 31.588,101.059 133.642,112.978c102.071,11.918 162.795,-108.056 285.428,-86.603c122.649,21.454 159.263,205.325 53.316,231.511" style="fill:none;fill-rule:nonzero;stroke:#c89948;stroke-width:2.08px;"/><path d="M828.221,1695.98c20.75,22.397 28.622,97.852 130.675,109.771c102.071,11.918 162.796,-108.056 285.445,-86.603c122.632,21.454 139.216,185.895 46.388,219.284" style="fill:none;fill-rule:nonzero;stroke:#c89948;stroke-width:2.08px;"/><path d="M827.895,1698.79c20.905,21.007 33.235,98.915 134.997,113.046c101.779,14.148 166.105,-104.352 288.189,-80.223c122.066,24.128 130.675,188.896 39.648,206.816" style="fill:none;fill-rule:nonzero;stroke:#c89948;stroke-width:2.08px;"/><path d="M833.04,1708.77c20.081,22.843 30.679,98.778 132.459,112.909c101.762,14.148 166.105,-104.351 288.171,-80.223c122.084,24.129 123.593,176.806 37.059,196.973" style="fill:none;fill-rule:nonzero;stroke:#c89948;stroke-width:2.08px;"/><path d="M1284.83,1057.01c1.217,-19.927 -5.779,-92.948 -74.444,-104.335c-68.664,-11.387 -120.317,107.987 -202.221,87.22c-81.903,-20.767 -110.937,-222.508 -23.803,-255.503" style="fill:none;fill-rule:nonzero;stroke:#c89948;stroke-width:2.08px;"/><path d="M1282.84,1050.94c3.481,-20.99 -7.477,-98.984 -76.142,-110.371c-68.665,-11.387 -120.317,107.987 -202.221,87.22c-81.903,-20.768 -100.339,-213.574 -20.116,-243.396" style="fill:none;fill-rule:nonzero;stroke:#c89948;stroke-width:2.08px;"/><path d="M1284.93,1038.35c-11.559,-26.358 -12.982,-100.202 -81.647,-111.589c-68.664,-11.37 -120.3,107.987 -202.203,87.237c-81.904,-20.767 -91.284,-203.147 -16.721,-229.608" style="fill:none;fill-rule:nonzero;stroke:#c89948;stroke-width:2.08px;"/><path d="M1279.5,1023.07c-12.245,-22.157 -11.216,-97.029 -79.88,-108.416c-68.665,-11.387 -120.318,107.987 -202.221,87.22c-81.904,-20.768 -79.263,-183.923 -13.034,-217.484" style="fill:none;fill-rule:nonzero;stroke:#c89948;stroke-width:2.08px;"/><path d="M1279.96,1020.28c-12.485,-20.768 -14.286,-98.058 -82.556,-111.64c-68.27,-13.599 -122.255,104.317 -203.558,80.891c-81.286,-23.408 -73.158,-186.941 -9.484,-205.136" style="fill:none;fill-rule:nonzero;stroke:#c89948;stroke-width:2.08px;"/><path d="M1277.3,1010.38c-11.781,-22.586 -12.553,-97.921 -80.84,-111.52c-68.27,-13.599 -122.255,104.317 -203.541,80.909c-81.286,-23.409 -69.351,-174.971 -8.558,-195.379" style="fill:none;fill-rule:nonzero;stroke:#c89948;stroke-width:2.08px;"/><path d="M1073.04,1433.67c-9.621,-1.097 -21.831,3.018 -8.437,13.085c3.927,15.52 5.659,33.252 4.87,53.488l-0,58.358c-1.475,17.989 -1.749,37.161 -2.915,55.442c-2.418,17.029 -1.167,37.728 -2.933,55.426c-0.549,18.006 -3.738,35.841 -4.853,54.465c2.109,17.338 3.567,35.344 5.831,52.527c1.131,17.081 1.817,39.254 -0,56.403c-0.515,18.916 -2.641,36.27 -4.854,53.488c-1.886,17.578 -3.018,35.893 -4.87,53.488c-3.241,19.207 1.389,36.047 3.893,52.527c1.046,17.509 -1.338,37.008 2.915,53.488c3.087,16.36 6.62,32.274 6.808,51.532c-0.223,14.577 1.046,39.786 -19.447,37.934c-15.176,-4.27 -30.113,-8.797 -40.848,-17.509c-7.083,-11.541 -5.3,-36.116 -2.916,-51.533c2.058,-17.389 5.008,-33.886 6.808,-51.55c3.19,-15.159 4.648,-37.71 0,-52.527c-3.892,-15.537 -8.145,-30.748 -12.638,-45.702c-3.79,-15.674 -8.249,-30.662 -11.679,-46.68c-3.636,-15.811 -7.323,-31.588 -9.723,-48.634c-3.259,-16.206 -5.642,-33.269 -6.809,-51.533c-0.874,-20.339 2.316,-36.596 3.893,-54.465c5.625,-15.434 4.699,-32.463 3.893,-52.527c-2.521,-16.926 -4.664,-34.247 -8.763,-49.595c-4.219,-15.229 -9.106,-29.805 -12.639,-45.702c-4.527,-14.937 -8.077,-30.834 -11.678,-46.697c-2.984,-16.463 -6.826,-32.069 -8.746,-49.595c-3.362,-16.086 -5.505,-33.406 -6.808,-51.55c-1.269,-16.051 -1.51,-40.248 -0,-57.38c2.315,-17.132 4.201,-34.693 9.723,-48.618c4.202,-15.245 11.13,-27.781 17.509,-40.849c6.705,-12.741 13.634,-25.277 19.447,-38.911c8.557,-11.352 5.916,-34.229 1.955,-48.617c-4.116,-15.348 -6.122,-32.789 -10.701,-47.657c-11.215,-14.988 -6.311,27.215 -11.678,35.018c-1.938,17.492 -4.939,33.955 -5.831,52.51c-1.646,16.909 -3.756,35.842 -7.786,51.55c-3.652,15.777 -8.163,30.731 -12.638,45.702c-3.67,15.795 -8.163,30.748 -12.639,45.72c-2.195,16.017 -11.353,29.736 -7.786,48.617c5.522,14.834 7.803,32.789 0,46.679c-11.97,25.021 15.16,20.682 16.532,37.934c8.934,38.362 -16.086,12.004 -17.509,25.295c-12.691,4.27 -18.538,-17.612 -29.171,-23.34c-13.17,-5.402 -11.198,-28.399 -14.594,-44.742c-2.143,-18.503 8.129,-29.565 11.679,-44.741c8.849,-10.598 4.956,-33.955 5.831,-52.511l-0,-58.358c-0.103,-19.549 -0.738,-39.648 3.892,-54.465c2.418,-17.029 13.119,-25.775 13.617,-44.742c1.68,-17.749 1.886,-37.007 3.892,-54.448c-0.12,-19.567 2.333,-36.578 3.893,-54.465c1.218,-17.337 3.001,-36.579 4.853,-54.465c1.835,-17.612 4.236,-34.675 10.701,-47.657c5.042,-14.422 18.676,-20.236 35.979,-22.362c17.818,-1.647 33.303,-5.608 46.68,-11.679c11.867,-7.597 26.495,-12.416 25.294,-33.063c0.463,-19.927 -2.126,-36.785 -9.723,-48.635c-4.167,-15.279 -18.607,-20.287 -18.487,-39.871c-11.25,-17.492 11.764,-24.214 -1.938,-42.787c-3.961,-18.349 1.921,-36.87 9.724,-47.657c4.493,-12.999 24.18,-18.058 24.317,-30.148c-9.723,-15.108 -0.429,-34.418 13.616,-36.956c7.563,-3.086 15.726,-2.606 23.992,-1.457l-0,5.556c-6.414,-2.83 -14.577,-3.155 -23.014,-0.206c-14.783,0.429 -19.378,31.057 -2.933,34.041c6.037,-4.493 16.515,-3.053 25.947,-2.47l-0,5.848c-6.997,0.172 -14.611,5.951 -15.246,14.114c-6.894,16.943 6.774,30.011 15.246,27.352l-0,5.488c-8.112,-0.068 -16.36,0.755 -23.014,2.178c-15.537,5.865 -25.003,17.801 -30.165,34.041c-7.186,14.371 -3.036,40.917 2.932,54.465c4.253,17.132 7.889,34.881 20.425,43.764c5.367,5.831 18.075,13.788 29.822,13.531l-0,5.076c-4.768,0.446 -9.878,-0.326 -15.246,-3.053c-12.93,-6.791 -28.09,-32.857 -22.362,6.809c2.555,22.448 -12.913,29.256 -26.255,36.956c-13.548,7.854 -31.143,11.661 -50.572,13.616c-18.658,1.235 -30.714,11.455 -35.019,28.21c-3.858,16.017 -6.173,35.979 -7.785,55.426c-1.441,18.452 -3.67,38.482 -4.853,58.358c-2.264,19.138 -2.71,40.094 -3.893,60.295c-2.264,17.63 -0.841,41.329 -9.724,53.488c-6.568,14.834 -9.843,32.96 -10.701,53.488l0,63.228c-1.046,20.356 1.938,44.725 -1.938,62.234c-5.744,14.148 -13.616,28.553 -15.571,47.657c3.962,15.914 2.11,40.06 17.509,45.719c5.882,7.254 29.908,36.116 14.594,5.831c-17.972,-2.024 -13.976,-32.961 -10.701,-47.657c-10.684,-34.144 11.85,-2.693 2.915,17.509c-3.241,36.407 15.074,21.916 10.701,-4.871c2.401,-15.794 10.719,-36.304 1.938,-53.487c-5.093,-19.104 3.516,-36.939 6.808,-53.488c4.528,-15.348 9.775,-32.394 13.617,-49.595c4.99,-14.902 9.843,-32.326 13.616,-49.612c3.413,-16.463 6.036,-36.116 6.808,-56.403c2.538,-18.847 4.682,-38.105 7.786,-56.403c3.275,-18.864 6.088,-34.778 0.96,-54.465c-1.8,-18.007 14.457,-35.859 1.955,-51.55c14.354,-2.161 9.278,29.239 3.893,41.826c-3.756,22.123 4.167,37.351 14.577,47.657c10.924,7.769 29.805,14.594 50.572,10.701c15.554,-2.572 28.93,-16.102 36.956,-22.379c-5.128,14.748 -20.527,21.625 -35.979,27.233c-21.161,4.544 -40.111,-3.036 -51.549,-8.746c2.263,17.629 6.859,35.309 10.701,52.51c4.647,21.951 -4.493,37.573 -11.662,50.572c-5.968,13.925 -13.908,28.262 -21.402,41.827c-6.585,14.799 -12.433,30.353 -15.554,48.617c-3.155,16.737 -3.841,38.328 -4.87,58.358c1.389,18.487 2.435,39.717 5.831,57.38c2.177,17.715 5.83,36.356 9.74,53.488c3.138,18.247 7.117,35.67 11.661,52.528c3.585,16.291 9.415,32.737 13.617,49.594c4.356,17.029 7.803,34.984 9.723,54.466c3.739,19.429 -0.977,40.42 -3.893,57.38c-3.738,17.166 -3.326,41.741 -2.915,57.381c0.909,18.966 5.076,37.093 7.786,55.425c3.601,16.292 7.511,34.658 11.661,51.55c4.116,15.777 9.038,33.132 13.616,49.595c4.562,16.84 9.398,33.406 10.701,53.488c-2.744,17.149 -4.956,37.213 -7.785,55.442c-2.161,18.538 -6.62,37.248 -3.876,58.358c0.154,19.722 21.934,20.219 36.956,26.255c21.831,5.197 17.303,-25.86 16.532,-43.764c-1.304,-18.572 -4.991,-37.179 -7.786,-55.443c-1.715,-18.503 1.886,-40.248 -3.893,-57.38c-2.538,-18.332 -0.171,-41.603 1.955,-59.318c1.166,-20.219 3.859,-38.929 5.831,-58.358c1.475,-18.401 2.709,-39.46 1.938,-61.274c-0.669,-19.207 -3.825,-38.328 -4.853,-58.341c-4.922,-18.04 1.8,-37.865 2.915,-56.42c-1.081,-22.465 1.955,-40.832 2.915,-61.256c0.155,-19.738 2.453,-39.717 2.916,-60.313c1.646,-18.229 0.806,-41.346 0.977,-62.234c-1.355,-18.521 -2.075,-40.094 -8.763,-54.465c0.6,-10.924 -25.826,-37.436 -10.684,-32.086c2.178,10.204 13.291,22.105 26.907,20.956l-0,3.876Zm-0,131.07c-0.223,-3.687 -0.446,-7.357 -0.652,-10.993l0,-58.358c0.12,-5.316 0.326,-10.563 0.652,-15.691l-0,85.042Zm-0,-809.141l-0,6.26c-8.112,-5.985 -8.043,-28.468 -2.607,-38.671c4.63,2.16 -1.337,22.036 2.607,32.411Zm-0,141.291c-2.058,0.36 -4.236,0.514 -6.482,0.377c-10.753,-3.276 -22.603,-16.789 -3.893,-5.831c2.178,0.326 6.19,1.132 10.375,1.149l-0,4.305Zm-0,-9.655c-2.744,0.068 -5.608,-0.12 -8.437,-0.669c-29.908,-2.127 -5.3,-14.56 8.437,-12.519l-0,4.75c-7.083,-0.102 -14.577,0.824 -19.138,2.916c5.573,0.308 12.621,0.806 19.138,0.754l-0,4.768Zm-0,382.645c-1.252,0.275 -2.761,0.275 -4.545,-0.12c1.064,-0.137 5.454,-13.17 3.893,-17.509c0.223,0.069 0.429,0.137 0.652,0.24l-0,17.389Zm-0,-280.952c-1.149,0.36 -2.35,0.618 -3.567,0.738c-13.977,-7.666 -14.44,-12.759 3.567,-5.968l-0,5.23Zm-55.117,-126.662c-5.419,-12.193 -3.43,-38.5 -13.616,-40.849c3.55,14.439 6.671,34.555 13.616,40.849Zm-4.87,-60.296c-2.521,-5.093 -6.894,-54.86 -8.746,-19.464c1.114,8.626 8.231,50.452 8.746,19.464Zm-91.404,716.759c-0.721,-8.317 -14.491,-23.237 -15.572,-17.509c0.275,6.482 15.297,19.207 15.572,17.509Zm98.212,-734.268c-7.323,-4.888 -1.749,-60.313 -8.746,-25.295c0.137,11.198 4.973,58.118 8.746,25.295Zm8.763,-6.808c12.536,-6.894 21.162,-11.113 8.746,-25.295c-4.613,-16.635 6.945,-25.038 16.532,-31.125c-8.592,-0.498 -22.843,8.385 -28.193,17.509c-4.356,10.615 -1.338,35.138 2.915,38.911Zm-106.975,727.46c1.234,-7.117 -10.839,-13.051 -11.679,-9.724c3.396,2.47 12.193,11.696 11.679,9.724Zm139.061,-742.054c-8.661,-2.47 -10.375,-16.394 -7.769,-27.233c2.212,-8.043 15.537,-20.664 -0.977,-9.723c-4.716,6.654 -13.308,12.879 -10.701,24.317c-2.247,10.444 14.954,15.623 19.447,12.639Zm-23.34,72.935c-16.463,-0.155 -12.485,-21.282 7.786,-14.577c14.319,1.578 14.353,21.025 -7.786,14.577Zm10.701,-6.809c-1.389,-5.093 -14.079,-4.03 -14.594,-0.96c3.756,4.459 14.697,1.869 14.594,0.96Zm10.701,36.957c-3.876,-4.957 0.034,-12.759 3.893,-15.555c1.389,1.424 -0.258,13.668 -3.893,15.555Zm2.915,-46.68c-7.528,-10.427 -38.997,-5.693 -37.933,-8.746c12.158,-8.523 36.973,0.292 37.933,8.746Zm-50.572,883.07c-14.645,-0.755 -23.391,-17.543 -18.47,-30.148c0,15.108 15.486,25.861 18.47,30.148Zm-91.421,-469.728c1.234,-11.112 -6.62,-30.714 -2.916,-35.018c4.63,6.053 10.375,26.512 2.916,35.018Zm141.016,-242.161c-8.952,-5.625 -16.463,-15.4 -35.001,-12.656c-11.953,2.967 -31.314,-2.383 -37.934,-3.893c11.147,-3.772 28.896,0.824 44.742,-0.96c14.594,-0.84 25.089,8.077 28.193,17.509Zm-37.917,710.929c8.232,-4.733 16.498,-9.432 23.34,-15.572c-3.55,9.432 -9.329,16.618 -23.34,15.572Z" style="fill:#c89948;stroke:#c89948;stroke-width:1.56px;stroke-linecap:butt;"/><path d="M1112,1815.99c0.892,-20.442 -22.105,-70.037 -21.162,-91.37c-3.532,-14.697 -5.179,-43.044 -1.114,-60.142c-2.675,-19.584 -2.315,-42.22 -2.23,-64.583c3.396,-18.881 4.133,-40.42 3.344,-63.485c-5.127,-29.497 6.637,-47.709 8.901,-11.13l-0,65.698c1.835,20.441 4.373,40.18 4.459,62.371l-0,66.812c-1.938,24.232 1.337,43.233 6.688,60.142c4.081,15.519 14.919,32.394 6.688,52.338c-1.938,20.356 -13.685,30.869 -10.032,56.798c5.882,16.377 2.52,42.032 8.917,57.912l0,66.812c1.115,21.625 -0.446,43.405 -6.688,59.027c-2.812,16.24 -3.396,45.754 11.13,51.224c32.857,-1.372 -1.561,-8.471 7.802,-13.359c6.706,-1.166 -0.668,-5.522 -1.114,-6.688c18.641,-7.271 7.322,24.969 24.506,23.391c0.223,-0.514 14.353,-3.189 5.556,-4.458c-12.793,5.504 -6.671,-43.73 2.229,-12.245c16.772,6.208 30.2,22.037 22.277,-2.229c-6.928,-10.615 -29.651,-14.079 -23.391,-41.209c-9.227,-19.224 2.263,-38.397 3.344,-56.798c8.231,-14.851 10.135,-34.486 15.588,-50.109c6.088,-17.406 14.354,-31.708 16.703,-50.109c3.053,-17.955 8.969,-37.728 5.574,-59.027c-0.841,-21.419 -7.923,-36.63 -11.13,-55.683c-8.592,-11.901 -4.716,-39.134 -5.573,-60.141c-11.25,-15.692 4.87,-35.276 8.9,-48.995c13.822,-31.691 21.933,-72.866 27.85,-105.792c-0.498,-20.991 8.746,-35.104 5.573,-60.142c3.91,-18.349 1.698,-42.838 2.212,-64.583c0.429,-22.688 -2.572,-41.963 -4.441,-62.371c-2.933,-19.344 -10.873,-33.68 -15.589,-51.224c-15.125,-2.143 11.868,-28.518 -2.229,-45.65c-5.179,-15.812 -10.135,-36.545 -6.688,-57.912c2.71,-19.567 7.494,-37.059 13.359,-53.454c2.178,-20.098 6.036,-38.516 7.803,-59.027c1.492,-30.353 15.691,19.31 5.573,31.177c-8.266,18.35 -0.617,40.798 3.327,56.798c5.196,17.08 -0.12,44.673 3.344,63.485c5.265,17.012 12.69,31.846 18.933,47.88c6.996,13.496 14.885,28.965 24.506,41.209c9.586,12.673 15.348,29.205 24.488,42.307c12.862,9.415 18.35,26.203 24.506,42.323c-1.543,16 -3.292,44.416 3.344,59.027c10.753,4.236 39.546,6.431 56.798,2.23c13.102,13.05 -42.084,1.715 -20.047,28.947c4.39,13.531 0.085,51.739 14.473,43.439c1.595,-21.625 -8.883,-39.495 -2.229,-60.142c6.86,12.81 4.682,40.489 10.032,53.453c12.159,-10.117 5.625,-38.911 7.786,-59.026c12.038,-19.567 -24.815,-41.021 6.688,-24.489c5.367,20.287 39.734,16.806 15.588,-4.459c-9.535,-10.975 -16.343,-27.507 -30.062,-35.635c-10.324,-11.953 -20.887,-23.666 -25.62,-41.209c-6.088,-16.189 -11.593,-32.961 -17.818,-48.995c-7.649,-16.086 -8.763,-34.555 -13.359,-51.224c-3.31,-17.183 -9.81,-34.041 -14.474,-51.241c-3.035,-19.224 -19.293,-25.261 -23.391,-43.422c-2.264,-20.012 -9.312,-35.241 -7.803,-59.026c1.835,-24.095 -2.161,-42.393 -3.327,-63.469c-2.538,-22.997 7.426,-39.374 0,-59.027c-3.275,-19.018 -11.507,-33.046 -21.162,-45.667c-12.57,-9.707 -26.152,-18.401 -44.553,-22.26c-18.761,-3.515 -32.583,-11.97 -48.995,-17.818c-11.952,-8.557 -25.895,-17.972 -31.176,-34.538c-8.832,-24.043 -16.789,16.24 -37.865,8.918c-3.842,0.926 -7.357,1.286 -10.581,1.235l-0,-8.987c0.548,0 1.097,-0.017 1.663,-0.051c12.828,0.72 25.02,-2.624 31.177,-10.015c7.991,-4.116 12.176,-15.468 17.818,-23.391c4.15,-7.957 3.069,-24.575 14.491,-26.718c1.92,-9.741 13.565,-18.881 6.671,-31.194c-8.901,-6.431 1.234,-25.347 -2.23,-34.521c-2.195,-9.895 -3.773,-23.854 -11.129,-30.062c-3.945,-8.146 -15.177,-12.468 -24.506,-16.704c-7.82,-3.841 -19.362,-7.151 -33.955,-5.744l-0,-7.392c12.055,-0.823 25.483,-0.891 30.628,5.334c12.604,2.555 23.34,10.186 32.291,17.817c5.437,10.89 14.423,18.264 13.359,35.636c-2.195,12.039 1.252,22.174 2.778,33.852c1.99,15.434 -2.366,32.978 -16.137,41.878c-3.91,12.433 -8.866,23.803 -8.917,40.094c2.847,13.497 8.866,23.803 17.818,31.177c11.318,5.025 21.865,10.804 33.406,15.589c12.193,4.15 25.483,7.202 37.865,11.146c11.713,4.614 23.374,9.295 32.309,16.704c7.734,8.591 14.062,18.589 18.932,30.062c3.841,12.484 8.746,23.923 11.13,37.865c4.561,16.206 -2.298,29.393 -2.23,44.553c-2.606,18.949 5.196,27.472 3.344,45.65c0.686,15.657 -1.2,33.87 1.115,47.898c1.715,14.61 7.048,25.603 12.244,36.75c9.947,15.417 17.732,33.166 22.757,50.761c1.938,6.774 2.83,13.839 5.093,20.51c3.447,12.862 5.488,27.164 7.786,41.192c6.414,9.929 6.345,26.324 12.244,36.75c6.037,10.307 8.249,24.437 13.377,35.636c3.138,13.187 12.141,20.527 17.817,31.194c5.814,10.512 15.846,16.823 23.374,25.603c7.032,9.312 12.382,20.305 20.048,28.965c11.352,8.146 6.413,29.187 -11.13,20.047c-14.594,-14.079 -20.03,-2.332 -16.703,18.933c0.96,17.286 -0.549,32.102 -3.344,45.65c-8.06,5.659 -16.24,21.282 -31.177,13.359c-14.954,-1.372 -19.396,-13.273 -26.735,-22.259c-8.918,-7.409 -12.039,-20.63 -14.474,-34.538c-5.814,-10.495 -4.682,-27.97 -7.803,-41.192c-4.064,-12.262 -1.303,-31.348 -2.212,-46.783c-4.63,-11.695 -14.011,-18.658 -18.933,-30.062c-7.477,-7.7 -12.535,-20.99 -20.047,-30.062c-4.99,-11.353 -10.992,-21.693 -16.703,-32.309c-7.717,-8.608 -13.256,-19.395 -17.818,-31.176c-5.813,-10.53 -9.963,-22.706 -13.376,-35.636c-1.149,-15.177 -6.465,-26.204 -6.671,-42.324c-0.377,-15.948 1.389,-34.058 -2.229,-46.765c-9.689,6.654 -3.516,29.153 -11.147,37.865c0.686,15.64 -1.183,33.869 1.115,47.88c1.063,14.285 8.78,25.535 5.573,41.209c0.806,10.907 2.349,29.462 6.688,40.094c5.779,10.547 8.54,24.112 11.13,37.865c0.737,15.589 4.99,27.662 3.344,45.651c-0.497,15.828 0.806,33.492 -1.115,47.897c0.635,16.96 -5.299,27.353 -4.458,44.536c-0.275,16.051 -5.505,27.147 -5.557,43.438c-3.687,12.639 -4.424,28.245 -8.917,40.077c-2.624,12.553 -6.74,26.804 -11.13,38.98c-3.515,12.828 -5.573,27.095 -12.261,36.75c-8.678,13.154 -0.686,24.386 -1.115,41.209c0.874,12.176 -1.132,24.472 0.154,36.596c1.115,10.273 4.219,20.219 6.465,30.303c1.475,6.653 2.041,13.599 4.528,19.961c1.68,14.645 7.099,25.569 5.556,43.438c-4.373,11.936 -2.778,29.891 -8.9,40.095c-1.99,14.319 -7.289,25.38 -10.015,38.979c-5.402,9.775 -7.1,26.427 -12.262,37.848c-3.224,13.119 -6.654,26.015 -11.13,37.865c-6.533,13.599 -1.835,27.644 0,42.324c-5.196,12.982 6.98,23.494 15.589,28.947c10.958,0.944 25.363,15.863 13.359,26.736c-10.444,5.882 -31.177,1.474 -43.421,5.573c-14.92,-5.745 -28.759,2.915 -42.324,-2.229c-1.972,-3.379 -1.509,-7.683 -1.869,-11.576c-1.184,-13.342 -3.482,-30.679 -1.527,-45.222c1.698,-12.484 7.46,-25.277 5.625,-37.916c-4.15,-28.45 2.367,-54.517 -1.114,-75.747c-17.75,-107.953 0.583,-131.447 1.114,-143.537Zm-25.054,-957.977c4.596,-1.218 16.171,-0.96 14.885,-8.883c-1.08,-6.637 -6.877,-10.924 -7.443,-17.801c-0.171,-1.955 -0.137,-4.27 0.841,-6.088c0.308,-0.566 0.823,-2.092 1.183,-1.543c1.115,1.766 0.995,4.064 1.681,6.053c2.538,7.409 6.636,14.423 8.128,22.174c0.515,2.744 0.995,6.294 -0.377,9.003c-2.315,4.528 -8.335,4.785 -12.708,4.476c-2.075,-0.137 -4.853,0.789 -6.19,-0.806c-1.407,-1.68 -0.601,-4.476 -0,-6.585Zm-0,17.543c2.778,0 5.556,0.378 8.351,0.48c3.739,0.138 7.494,0 11.233,0.241c2.212,0.137 4.424,0.497 6.602,0.908c0.497,0.086 3.258,0.789 2.504,2.058c-0.737,1.218 -4.425,2.127 -4.596,2.178c-4.184,1.064 -9.466,1.544 -13.685,1.595c-2.915,0.034 -5.831,-0.24 -8.746,-0.309c-0.549,0 -1.543,0.618 -1.663,0.069c-0.549,-2.349 -0.275,-4.836 -0,-7.22Zm-0,11.404c3.892,0.018 7.785,0.206 11.695,0.206c2.693,0 5.402,-0.291 8.112,-0.223c1.492,0.035 3.961,-0.411 4.373,1.029c0.291,1.063 -1.664,1.526 -2.693,1.938c-1.423,0.566 -2.898,1.012 -4.39,1.389c-3.55,0.909 -7.871,1.646 -11.524,1.869c-1.852,0.12 -4.339,1.389 -5.573,0c-1.389,-1.543 -0.583,-4.235 -0,-6.208Zm274.504,685.085c-0.481,-4.887 -0.875,-9.809 -1.492,-14.696c-0.806,-6.123 -1.664,-12.245 -2.779,-18.315c-0.754,-4.099 -1.817,-8.318 -4.253,-11.816c-0.514,-0.738 -2.04,-1.166 -2.743,-0.326c-1.287,1.526 -2.984,3.087 -3.207,5.076c-0.412,3.721 2.812,33.081 2.984,34.367c0.36,2.624 0.891,5.247 1.732,7.751c0.274,0.823 2.881,7.666 5.625,4.322c1.594,-1.955 3.052,-4.065 4.133,-6.363Zm-18.933,-20.03c1.766,-7.134 -1.029,-16.257 -3.601,-22.825c-0.909,-2.298 -1.921,-4.905 -4.03,-6.448c-0.652,-0.48 -1.441,0.617 -1.544,0.977c-2.366,8.884 0.481,19.379 2.59,27.953c0.531,2.127 1.475,5.231 3.361,6.808c0.686,0.566 1.612,-0.908 1.681,-1.097c0.651,-1.749 1.217,-3.55 1.543,-5.368Zm-96.892,-328.523c0.858,-1.44 2.967,-3.035 4.373,-3.721c5.968,-2.898 10.307,-4.305 16.978,-5.402c3.258,-0.515 6.602,-1.475 9.843,-0.909c0.909,0.154 -0.823,1.663 -1.406,2.384c-1.44,1.732 -3.601,3.121 -5.573,4.098c-7.34,3.619 -16.172,4.425 -24.215,3.55Zm-150.328,69.042c-0.583,-0.034 -1.149,-0.137 -1.698,-0.326c-3.875,-1.389 -3.086,-6.654 -1.869,-9.535c0.446,-1.046 1.081,-1.989 1.732,-2.915c0.995,-1.441 2.984,-2.744 4.802,-2.315c1.338,0.309 1.578,0.84 2.589,1.732c0.686,0.583 1.441,1.115 2.093,1.749c2.195,2.229 5.625,7.168 2.383,9.981c-2.572,2.212 -6.945,1.903 -10.032,1.629Zm75.73,820.751c0.017,-0.824 -1.132,-2.041 -1.526,-2.487c-0.995,-1.149 -3.258,-3.327 -4.133,-4.99c-0.755,-1.407 -0.978,-2.899 0.257,-4.082c0.292,-0.257 0.583,-0.531 0.943,-0.703c0.978,-0.446 2.213,0.755 2.676,1.321c1.852,2.16 3.086,5.607 3.001,8.454c-0.017,0.875 -0.189,2.178 -1.218,2.487Zm-6.688,-304.035c-5.882,-11.095 -3.841,-26.118 0,-37.402c1.115,-3.275 1.955,-6.979 4.459,-9.363c1.063,-1.012 0.634,2.881 0.754,4.356c0.138,1.715 0.138,3.43 -0.034,5.144c-0.377,3.979 -0.96,7.958 -1.578,11.902c-1.372,8.849 -3.378,16.377 -3.601,25.363Zm20.047,-703.811c-3.344,-2.436 -4.51,-8.198 -0.583,-10.667c2.041,-1.303 5.042,-1.286 7.254,-0.463c4.099,1.492 4.236,7.271 1.475,9.981c-2.195,2.143 -5.419,2.126 -8.146,1.149Zm-37.865,663.734c-3.79,0.943 -7.7,-0.943 -10.495,-3.413c-1.595,-1.406 -2.555,-2.675 -3.104,-4.681c-0.291,-1.081 0.806,-1.647 1.664,-1.681c2.332,-0.069 4.081,1.355 6.362,1.972c1.183,0.309 2.435,0.223 3.635,0.463c2.384,0.463 5.231,1.338 7.46,2.332c1.595,0.721 3.104,1.441 4.082,2.95c0.274,0.429 -0.206,1.063 -0.566,1.183c-0.978,0.361 -1.99,0.652 -3.018,0.755c-2.007,0.189 -4.013,0.189 -6.02,0.12Zm1.115,38.98c-4.253,-11.044 -17.235,-15.777 -21.608,-26.787c-0.6,-1.509 -2.967,-10.838 -0.669,-12.193c1.527,-0.909 1.818,3.035 2.899,4.442c1.131,1.509 2.435,2.898 3.721,4.304c7.786,8.472 18.349,17.252 15.657,30.234Zm13.359,-673.75c-2.401,-0.206 -4.802,-0.48 -7.151,-1.046c-0.652,-0.154 -4.63,-1.08 -2.384,-2.898c2.933,-2.367 13.702,-3.378 14.217,-3.413c3.995,-0.223 8.025,1.029 12.021,0.669c3.327,-0.309 14.474,-4.373 17.561,-5.831c7.614,-3.584 6.739,-4.767 13.616,-9.757c1.389,-0.995 2.967,-1.715 4.562,-2.247c0.566,-0.189 1.44,-0.394 1.783,0.103c1.029,1.509 -1.286,3.498 -2.469,4.887c-2.11,2.453 -4.253,4.922 -6.637,7.117c-12.347,11.37 -28.999,13.565 -45.119,12.416Zm-31.177,-316.279c-1.183,-2.966 -5.745,-3.258 -8.128,-3.429c-3.859,-0.275 -8.952,0.308 -12.776,0.497c-1.784,0.086 -3.55,0.274 -5.334,0.171c-0.223,-0.017 -3.653,0.035 -3.498,-1.594c0.223,-2.573 3.052,-4.305 5.23,-5.677c1.201,-0.737 2.675,-0.943 4.065,-1.063c5.847,-0.549 12.33,1.063 17.766,3.07c1.869,0.686 11.85,4.973 5.368,7.322c-0.875,0.309 -1.784,0.532 -2.693,0.703Zm-13.359,15.589c-3.19,-0.515 -10.289,-2.607 -8.42,-7.477c0.171,-0.446 0.377,-0.892 0.686,-1.252c0.754,-0.806 1.543,-1.629 2.504,-2.212c1.166,-0.703 2.452,-1.218 3.772,-1.544c5.797,-1.423 10.821,0 15.829,3.019c0.96,0.583 1.818,1.337 2.624,2.109c0.291,0.291 0.651,1.2 0.291,1.612c-1.972,2.281 -5.899,2.572 -8.54,3.292c-2.932,0.789 -5.899,1.407 -8.746,2.453Z" style="fill:#c89948;stroke:#c89948;stroke-width:1.56px;stroke-linecap:butt;"/></svg>